<mxfile host="app.diagrams.net" agent="Mozilla/5.0 (Windows NT 10.0; Win64; x64) AppleWebKit/537.36 (KHTML, like Gecko) Chrome/139.0.0.0 Safari/537.36" version="28.1.0">
  <diagram name="Page-1" id="ZO2YipCXRjyHem4071_1">
    <mxGraphModel dx="922" dy="498" grid="1" gridSize="10" guides="1" tooltips="1" connect="1" arrows="1" fold="1" page="1" pageScale="1" pageWidth="827" pageHeight="1169" math="0" shadow="0">
      <root>
        <mxCell id="0" />
        <mxCell id="1" parent="0" />
        <mxCell id="D2nYdIhuo-v2FRR_Lx9--2" value="" style="whiteSpace=wrap;html=1;aspect=fixed;" vertex="1" parent="1">
          <mxGeometry x="185" y="60" width="350" height="350" as="geometry" />
        </mxCell>
        <mxCell id="D2nYdIhuo-v2FRR_Lx9--3" value="ADMIN" style="shape=umlActor;verticalLabelPosition=bottom;verticalAlign=top;html=1;outlineConnect=0;" vertex="1" parent="1">
          <mxGeometry x="100" y="220" width="30" height="60" as="geometry" />
        </mxCell>
        <mxCell id="D2nYdIhuo-v2FRR_Lx9--6" value="Guru" style="shape=umlActor;verticalLabelPosition=bottom;verticalAlign=top;html=1;outlineConnect=0;" vertex="1" parent="1">
          <mxGeometry x="120" y="130" width="30" height="60" as="geometry" />
        </mxCell>
        <mxCell id="D2nYdIhuo-v2FRR_Lx9--7" value="siswa" style="shape=umlActor;verticalLabelPosition=bottom;verticalAlign=top;html=1;outlineConnect=0;" vertex="1" parent="1">
          <mxGeometry x="550" y="260" width="30" height="60" as="geometry" />
        </mxCell>
        <mxCell id="D2nYdIhuo-v2FRR_Lx9--23" style="edgeStyle=orthogonalEdgeStyle;rounded=0;orthogonalLoop=1;jettySize=auto;html=1;exitX=0;exitY=0.5;exitDx=0;exitDy=0;" edge="1" parent="1" source="D2nYdIhuo-v2FRR_Lx9--9" target="D2nYdIhuo-v2FRR_Lx9--3">
          <mxGeometry relative="1" as="geometry" />
        </mxCell>
        <mxCell id="D2nYdIhuo-v2FRR_Lx9--9" value="input data guru&amp;amp;siswa" style="ellipse;whiteSpace=wrap;html=1;fillColor=#dae8fc;strokeColor=#6c8ebf;" vertex="1" parent="1">
          <mxGeometry x="240" y="90" width="240" height="40" as="geometry" />
        </mxCell>
        <mxCell id="D2nYdIhuo-v2FRR_Lx9--19" style="edgeStyle=orthogonalEdgeStyle;rounded=0;orthogonalLoop=1;jettySize=auto;html=1;exitX=0;exitY=0.5;exitDx=0;exitDy=0;" edge="1" parent="1" source="D2nYdIhuo-v2FRR_Lx9--11" target="D2nYdIhuo-v2FRR_Lx9--6">
          <mxGeometry relative="1" as="geometry" />
        </mxCell>
        <mxCell id="D2nYdIhuo-v2FRR_Lx9--11" value="input nilai siswa&amp;nbsp;" style="ellipse;whiteSpace=wrap;html=1;fillColor=#dae8fc;strokeColor=#6c8ebf;" vertex="1" parent="1">
          <mxGeometry x="240" y="140" width="240" height="40" as="geometry" />
        </mxCell>
        <mxCell id="D2nYdIhuo-v2FRR_Lx9--18" style="edgeStyle=orthogonalEdgeStyle;rounded=0;orthogonalLoop=1;jettySize=auto;html=1;exitX=0;exitY=0.5;exitDx=0;exitDy=0;" edge="1" parent="1" source="D2nYdIhuo-v2FRR_Lx9--12" target="D2nYdIhuo-v2FRR_Lx9--3">
          <mxGeometry relative="1" as="geometry" />
        </mxCell>
        <mxCell id="D2nYdIhuo-v2FRR_Lx9--12" value="hapus data guru&amp;amp;siswa" style="ellipse;whiteSpace=wrap;html=1;fillColor=#dae8fc;strokeColor=#6c8ebf;" vertex="1" parent="1">
          <mxGeometry x="240" y="190" width="240" height="40" as="geometry" />
        </mxCell>
        <mxCell id="D2nYdIhuo-v2FRR_Lx9--14" value="memilih mata pelajaran" style="ellipse;whiteSpace=wrap;html=1;fillColor=#dae8fc;strokeColor=#6c8ebf;" vertex="1" parent="1">
          <mxGeometry x="240" y="250" width="240" height="40" as="geometry" />
        </mxCell>
        <mxCell id="D2nYdIhuo-v2FRR_Lx9--16" style="edgeStyle=orthogonalEdgeStyle;rounded=0;orthogonalLoop=1;jettySize=auto;html=1;exitX=1;exitY=0.5;exitDx=0;exitDy=0;" edge="1" parent="1" source="D2nYdIhuo-v2FRR_Lx9--15" target="D2nYdIhuo-v2FRR_Lx9--7">
          <mxGeometry relative="1" as="geometry" />
        </mxCell>
        <mxCell id="D2nYdIhuo-v2FRR_Lx9--15" value="melihat nilai" style="ellipse;whiteSpace=wrap;html=1;fillColor=#dae8fc;strokeColor=#6c8ebf;" vertex="1" parent="1">
          <mxGeometry x="250" y="320" width="240" height="40" as="geometry" />
        </mxCell>
        <mxCell id="D2nYdIhuo-v2FRR_Lx9--21" style="edgeStyle=orthogonalEdgeStyle;rounded=0;orthogonalLoop=1;jettySize=auto;html=1;exitX=1;exitY=0.5;exitDx=0;exitDy=0;entryX=0;entryY=0.3333333333333333;entryDx=0;entryDy=0;entryPerimeter=0;" edge="1" parent="1" source="D2nYdIhuo-v2FRR_Lx9--14" target="D2nYdIhuo-v2FRR_Lx9--7">
          <mxGeometry relative="1" as="geometry" />
        </mxCell>
      </root>
    </mxGraphModel>
  </diagram>
</mxfile>
